<svg xmlns="http://www.w3.org/2000/svg" xmlns:xlink="http://www.w3.org/1999/xlink" width="49.759" height="46.771" viewBox="0 0 49.759 46.771">
  <defs>
    <linearGradient id="linear-gradient" x1="0.558" y1="0.403" x2="4.032" y2="-1.915" gradientUnits="objectBoundingBox">
      <stop offset="0" stop-color="#5fc4d4"/>
      <stop offset="0.276" stop-color="#0a1d1e"/>
      <stop offset="0.623" stop-color="#1d5c5f"/>
      <stop offset="1" stop-color="#0b1b1c"/>
    </linearGradient>
    <clipPath id="clip-path">
      <path id="logoart" d="M490.625,512.628l-5-10v-8.309l-10.408-10.407,3.535-3.535,11.873,11.872Zm23.945-10-5,10v-20.38l11.871-11.872,3.535,3.535L514.57,494.319Zm-15.957,20.645-5-2V490.449L483.2,480.041l3.535-3.535,11.873,11.872Zm7.968-2-5,2v-34.9L513.453,476.5l3.535,3.535-10.407,10.408Z" transform="translate(-474.983 -468.889)" fill="url(#linear-gradient)"/>
    </clipPath>
    <linearGradient id="linear-gradient-2" y1="0.015" x2="1" y2="1.019" gradientUnits="objectBoundingBox">
      <stop offset="0" stop-color="#51e8ef"/>
      <stop offset="0.276" stop-color="#146365"/>
      <stop offset="0.586" stop-color="#51e8ef"/>
      <stop offset="1" stop-color="#02190d"/>
    </linearGradient>
  </defs>
  <g id="logoart-2" data-name="logoart" transform="translate(-0.234 -7.613)" clip-path="url(#clip-path)">
    <rect id="Rectangle_15" data-name="Rectangle 15" width="50" height="80" transform="translate(0 -26)" fill="url(#linear-gradient-2)"/>
  </g>
</svg>

